<svg width="20" height="14" viewBox="0 0 20 14" fill="none" xmlns="http://www.w3.org/2000/svg">
<path d="M4 3.99956H1C0.45 3.99956 0 3.54956 0 2.99956C0 2.44956 0.45 1.99956 1 1.99956H4C4.55 1.99956 5 2.44956 5 2.99956C5 3.54956 4.55 3.99956 4 3.99956ZM4 6.99956H1C0.45 6.99956 0 7.44956 0 7.99956C0 8.54956 0.45 8.99956 1 8.99956H4C4.55 8.99956 5 8.54956 5 7.99956C5 7.44956 4.55 6.99956 4 6.99956ZM17.88 13.2896L14.76 10.1696C13.9 10.7296 12.87 11.0496 11.76 10.9896C9.39 10.8796 7.36 9.02956 7.04 6.67956C6.6 3.32956 9.49 0.499556 12.87 1.06956C14.82 1.39956 16.44 2.91956 16.87 4.84956C17.2 6.30956 16.88 7.66956 16.17 8.74956L19.3 11.8796C19.69 12.2696 19.69 12.8996 19.3 13.2896C18.91 13.6796 18.27 13.6796 17.88 13.2896ZM15 5.99956C15 4.34956 13.65 2.99956 12 2.99956C10.35 2.99956 9 4.34956 9 5.99956C9 7.64956 10.35 8.99956 12 8.99956C13.65 8.99956 15 7.64956 15 5.99956ZM1 13.9996H9C9.55 13.9996 10 13.5496 10 12.9996C10 12.4496 9.55 11.9996 9 11.9996H1C0.45 11.9996 0 12.4496 0 12.9996C0 13.5496 0.45 13.9996 1 13.9996Z" fill="#424242"/>
</svg>
