<svg width="60" height="54" viewBox="0 0 60 54" fill="none" xmlns="http://www.w3.org/2000/svg">
<path d="M0 26.6667C0 34.0333 3.03333 40.6667 7.86667 45.4667L0 53.3333H20V33.3333L12.5333 40.8C8.93333 37.1667 6.66667 32.2 6.66667 26.6667C6.66667 17.9667 12.2333 10.5667 20 7.83333V0.866667C8.5 3.83333 0 14.2333 0 26.6667ZM26.6667 43.3333H33.3333V36.6667H26.6667V43.3333ZM60 0H40V20L47.4667 12.5333C51.0667 16.1667 53.3333 21.1333 53.3333 26.6667C53.3333 35.3667 47.7667 42.7667 40 45.5V52.4667C51.5 49.5 60 39.1 60 26.6667C60 19.3 56.9667 12.6667 52.1333 7.86667L60 0ZM26.6667 30H33.3333V10H26.6667V30Z" fill="#ED002F"/>
</svg>
