<svg width="20" height="21" viewBox="0 0 20 21" fill="none" xmlns="http://www.w3.org/2000/svg">
<path d="M4.02222 8.66514C5.62222 11.8096 8.2 14.3762 11.3444 15.9874L13.7889 13.5429C14.0889 13.2429 14.5333 13.1429 14.9222 13.2762C16.1667 13.6874 17.5111 13.9096 18.8889 13.9096C19.5 13.9096 20 14.4096 20 15.0207V18.8985C20 19.5096 19.5 20.0096 18.8889 20.0096C8.45556 20.0096 0 11.554 0 1.12069C0 0.509583 0.5 0.00958252 1.11111 0.00958252H5C5.61111 0.00958252 6.11111 0.509583 6.11111 1.12069C6.11111 2.50958 6.33333 3.84292 6.74444 5.08736C6.86667 5.47625 6.77778 5.90958 6.46667 6.22069L4.02222 8.66514Z" fill="#424242"/>
</svg>
