<svg width="20" height="21" viewBox="0 0 20 21" fill="none" xmlns="http://www.w3.org/2000/svg">
<path d="M17.4997 10.5C17.4997 10.27 17.4897 10.05 17.4697 9.82L19.3297 8.41C19.7297 8.11 19.8397 7.55 19.5897 7.11L17.7197 3.88C17.4697 3.44 16.9297 3.26 16.4697 3.46L14.3197 4.37C13.9497 4.11 13.5597 3.88 13.1497 3.69L12.8597 1.38C12.7997 0.88 12.3697 0.5 11.8697 0.5H8.13967C7.62967 0.5 7.19967 0.88 7.13967 1.38L6.84967 3.69C6.43967 3.88 6.04967 4.11 5.67967 4.37L3.52967 3.46C3.06967 3.26 2.52967 3.44 2.27967 3.88L0.409665 7.12C0.159665 7.56 0.269665 8.11 0.669665 8.42L2.52967 9.83C2.50967 10.05 2.49967 10.27 2.49967 10.5C2.49967 10.73 2.50967 10.95 2.52967 11.18L0.669665 12.59C0.269665 12.89 0.159665 13.45 0.409665 13.89L2.27967 17.12C2.52967 17.56 3.06967 17.74 3.52967 17.54L5.67967 16.63C6.04967 16.89 6.43967 17.12 6.84967 17.31L7.13967 19.62C7.19967 20.12 7.62967 20.5 8.12967 20.5H11.8597C12.3597 20.5 12.7897 20.12 12.8497 19.62L13.1397 17.31C13.5497 17.12 13.9397 16.89 14.3097 16.63L16.4597 17.54C16.9197 17.74 17.4597 17.56 17.7097 17.12L19.5797 13.89C19.8297 13.45 19.7197 12.9 19.3197 12.59L17.4597 11.18C17.4897 10.95 17.4997 10.73 17.4997 10.5ZM10.0397 14C8.10967 14 6.53967 12.43 6.53967 10.5C6.53967 8.57 8.10967 7 10.0397 7C11.9697 7 13.5397 8.57 13.5397 10.5C13.5397 12.43 11.9697 14 10.0397 14Z" fill="#424242"/>
</svg>
