<svg width="23" height="28" viewBox="0 0 23 28" fill="none" xmlns="http://www.w3.org/2000/svg">
<path d="M11.3333 0.666656C5.08 0.666656 0 5.74666 0 12C0 18.2533 5.08 23.3333 11.3333 23.3333H12V27.3333C18.48 24.2133 22.6667 18 22.6667 12C22.6667 5.74666 17.5867 0.666656 11.3333 0.666656ZM12.6667 20H10V17.3333H12.6667V20ZM13.2 13.6267C13.1867 13.64 13.1733 13.6667 13.16 13.6933C13.0933 13.8 13.0267 13.9067 12.9733 14.0133C12.9467 14.0533 12.9333 14.1067 12.92 14.16C12.88 14.2533 12.84 14.3467 12.8133 14.44C12.72 14.72 12.68 15.0133 12.68 15.3467H10C10 14.6667 10.1067 14.0933 10.2667 13.6133C10.2667 13.6 10.2667 13.5867 10.28 13.5733C10.2933 13.52 10.3333 13.4933 10.3467 13.44C10.4267 13.2267 10.52 13.04 10.64 12.8533C10.68 12.7867 10.7333 12.72 10.7733 12.6533C10.8133 12.6 10.84 12.5333 10.88 12.4933L10.8933 12.5067C12.0133 11.04 13.84 10.5867 13.9867 8.93332C14.1067 7.62666 13.1733 6.35999 11.8933 6.09332C10.5067 5.79999 9.25333 6.61332 8.82667 7.79999C8.64 8.27999 8.2 8.66666 7.65333 8.66666H7.38667C6.58667 8.66666 6 7.87999 6.22667 7.10666C6.96 4.67999 9.38667 2.98666 12.1333 3.38666C14.3867 3.71999 16.1867 5.57332 16.5733 7.82666C17.16 11.08 14.4 11.8667 13.2 13.6267Z" fill="#A41D36"/>
</svg>
