<svg width="20" height="21" viewBox="0 0 20 21" fill="none" xmlns="http://www.w3.org/2000/svg">
<path d="M10 0.5C4.48 0.5 0 4.98 0 10.5C0 16.02 4.48 20.5 10 20.5C15.52 20.5 20 16.02 20 10.5C20 4.98 15.52 0.5 10 0.5ZM11 17.5H9V15.5H11V17.5ZM13.07 9.75L12.17 10.67C11.67 11.18 11.31 11.64 11.13 12.36C11.05 12.68 11 13.04 11 13.5H9V13C9 12.54 9.08 12.1 9.22 11.69C9.42 11.11 9.75 10.59 10.17 10.17L11.41 8.91C11.87 8.47 12.09 7.81 11.96 7.11C11.83 6.39 11.27 5.78 10.57 5.58C9.46 5.27 8.43 5.9 8.1 6.85C7.98 7.22 7.67 7.5 7.28 7.5H6.98C6.4 7.5 6 6.94 6.16 6.38C6.59 4.91 7.84 3.79 9.39 3.55C10.91 3.31 12.36 4.1 13.26 5.35C14.44 6.98 14.09 8.73 13.07 9.75Z" fill="white"/>
</svg>
