<svg width="21" height="21" viewBox="0 0 21 21" fill="none" xmlns="http://www.w3.org/2000/svg">
<path d="M9.76367 13.9473H11.7637V15.9473H9.76367V13.9473ZM9.76367 5.94727H11.7637V11.9473H9.76367V5.94727ZM10.7537 0.947266C5.23367 0.947266 0.763672 5.42727 0.763672 10.9473C0.763672 16.4673 5.23367 20.9473 10.7537 20.9473C16.2837 20.9473 20.7637 16.4673 20.7637 10.9473C20.7637 5.42727 16.2837 0.947266 10.7537 0.947266ZM10.7637 18.9473C6.34367 18.9473 2.76367 15.3673 2.76367 10.9473C2.76367 6.52727 6.34367 2.94727 10.7637 2.94727C15.1837 2.94727 18.7637 6.52727 18.7637 10.9473C18.7637 15.3673 15.1837 18.9473 10.7637 18.9473Z" fill="#ED002F"/>
</svg>
