<svg width="18" height="19" viewBox="0 0 18 19" fill="none" xmlns="http://www.w3.org/2000/svg">
<path d="M2 2.5H8C8.55 2.5 9 2.05 9 1.5C9 0.95 8.55 0.5 8 0.5H2C0.9 0.5 0 1.4 0 2.5V16.5C0 17.6 0.9 18.5 2 18.5H8C8.55 18.5 9 18.05 9 17.5C9 16.95 8.55 16.5 8 16.5H2V2.5Z" fill="white"/>
<path d="M17.65 9.14954L14.86 6.35954C14.54 6.03954 14 6.25954 14 6.70954V8.49954H7C6.45 8.49954 6 8.94954 6 9.49954C6 10.0495 6.45 10.4995 7 10.4995H14V12.2895C14 12.7395 14.54 12.9595 14.85 12.6395L17.64 9.84954C17.84 9.65954 17.84 9.33954 17.65 9.14954Z" fill="white"/>
</svg>
