<svg width="18" height="18" viewBox="0 0 18 18" fill="none" xmlns="http://www.w3.org/2000/svg">
<path d="M16.6503 6.26272L11.8103 5.84272L9.92032 1.39272C9.58032 0.582717 8.42032 0.582717 8.08032 1.39272L6.19032 5.85272L1.36032 6.26272C0.480317 6.33272 0.120317 7.43272 0.790317 8.01272L4.46032 11.1927L3.36032 15.9127C3.16032 16.7727 4.09032 17.4527 4.85032 16.9927L9.00032 14.4927L13.1503 17.0027C13.9103 17.4627 14.8403 16.7827 14.6403 15.9227L13.5403 11.1927L17.2103 8.01272C17.8803 7.43272 17.5303 6.33272 16.6503 6.26272ZM9.00032 12.6227L5.24032 14.8927L6.24032 10.6127L2.92032 7.73272L7.30032 7.35272L9.00032 3.32272L10.7103 7.36272L15.0903 7.74272L11.7703 10.6227L12.7703 14.9027L9.00032 12.6227Z" fill="#424242"/>
</svg>
