<svg width="20" height="18" viewBox="0 0 20 18" fill="none" xmlns="http://www.w3.org/2000/svg">
<path d="M1.5 18C1.0875 18 0.734375 17.8531 0.440625 17.5594C0.146875 17.2656 0 16.9125 0 16.5V0L1.675 1.675L3.325 0L5 1.675L6.675 0L8.325 1.675L10 0L11.675 1.675L13.325 0L15 1.675L16.675 0L18.325 1.675L20 0V16.5C20 16.9125 19.8531 17.2656 19.5594 17.5594C19.2656 17.8531 18.9125 18 18.5 18H1.5ZM1.5 16.5H9.25V9.5H1.5V16.5ZM10.75 16.5H18.5V13.75H10.75V16.5ZM10.75 12.25H18.5V9.5H10.75V12.25ZM1.5 8H18.5V5H1.5V8Z" fill="#424242"/>
</svg>
