<svg width="99" height="32" viewBox="0 0 99 32" fill="none" xmlns="http://www.w3.org/2000/svg">
<path d="M25.9519 10.9863L17.6541 10.9442H11.3379V31.2621H18.1412V15.6969H22.8878C26.1489 15.6969 26.1666 18.6482 26.1954 21.4311V31.2532H32.9301V21.4222C32.9301 12.739 30.1694 10.9775 25.9519 10.9775V10.9863ZM49.4746 10.9354L45.1641 25.5257L44.883 26.2081C44.883 26.2081 40.5415 11.2411 40.4684 10.9354H33.2489C33.4459 11.4849 40.6588 30.9851 40.7496 31.2532H48.6311C48.7241 30.9851 55.875 11.4849 56.0853 10.9354H49.4746ZM91.9927 20.8772C91.9927 20.8772 97.9016 11.5469 98.3001 10.9354H91.0208C90.9145 11.157 87.6135 17.3808 87.6135 17.3808C87.6135 17.3808 84.5849 11.1769 84.4676 10.9354H76.5263L82.8935 20.8772L79.1299 26.567C73.1368 26.7576 71.1952 26.7576 69.3599 26.7576H68.7998C64.9365 26.7576 62.6141 25.7849 62.2201 22.9909L62.1891 22.7693H76.482V21.6748C76.482 18.2228 75.4836 10.2707 66.2538 10.2707C59.6851 10.2707 55.3879 14.4184 55.3879 20.8794C55.3879 27.1963 60.1589 31.5014 67.2036 31.5146L73.8453 31.4149L80.1726 31.2532H84.0536C84.1754 31.0316 87.6091 24.5463 87.6091 24.5463C87.6091 24.5463 90.5448 31.0338 90.6621 31.2532H98.765C98.3421 30.655 91.9882 20.8772 91.9882 20.8772H91.9927ZM62.2732 18.7235C62.3927 17.3564 63.0171 14.7818 65.9881 14.7818C69.1584 14.7818 69.7363 17.1282 69.785 18.7235H62.2732ZM0.230713 31.2532H6.97427V10.9354H0.230713V31.2532ZM0.230713 7.10225H6.97427V0.998047H0.230713V7.10225Z" fill="white"/>
</svg>
